<svg width="123" height="102" viewBox="0 0 123 102" fill="none" xmlns="http://www.w3.org/2000/svg">
<path fill-rule="evenodd" clip-rule="evenodd" d="M23.42 91.7C22.75 93.94 21.79 95.75 20.62 97.16H109.09H109.13C112.32 96.98 114.7 96.13 116.29 94.62C117.85 93.14 118.72 90.93 118.91 88V3.97H24.36V17.55V84.03C24.36 87.43 24.4 88.42 23.42 91.7ZM13.15 101.13C12.7 101.16 12.24 101.16 11.79 101.14C9.97001 101.03 8.18001 100.47 6.56001 99.52C3.01001 97.43 0.270008 93.43 0.0200076 88.2C0.0100076 88.12 7.62939e-06 88.03 7.62939e-06 87.95V17.55C7.62939e-06 16.45 0.890008 15.57 1.98001 15.57H20.4V1.98C20.4 0.88 21.29 0 22.38 0H120.9C122 0 122.88 0.89 122.88 1.98V88.05C122.88 88.15 122.87 88.26 122.86 88.36C122.59 92.26 121.31 95.31 119.02 97.49C116.74 99.66 113.52 100.87 109.35 101.11C109.27 101.12 109.18 101.13 109.09 101.13H13.15ZM12.05 97.19C12.15 97.17 12.26 97.16 12.37 97.16H13.09C13.88 97.08 14.65 96.86 15.37 96.48C19.78 94.17 20.39 88.53 20.39 84.06V19.53H3.97001V87.94C3.97001 87.96 3.97001 87.99 3.97001 88.01C4.16001 91.77 6.09001 94.63 8.58001 96.1C9.66001 96.74 10.84 97.11 12.01 97.18L12.05 97.19ZM35.8 60.85C34.7 60.85 33.82 59.96 33.82 58.87C33.82 57.77 34.71 56.89 35.8 56.89H66.06C67.16 56.89 68.04 57.78 68.04 58.87C68.04 59.97 67.15 60.85 66.06 60.85H35.8ZM74.73 60.85C73.63 60.85 72.74 59.96 72.74 58.86C72.74 57.76 73.63 56.87 74.73 56.87H107.36C108.46 56.87 109.35 57.76 109.35 58.86C109.35 59.96 108.46 60.85 107.36 60.85H74.73ZM74.73 72.36C73.63 72.36 72.74 71.47 72.74 70.37C72.74 69.27 73.63 68.38 74.73 68.38H107.36C108.46 68.38 109.35 69.27 109.35 70.37C109.35 71.47 108.46 72.36 107.36 72.36H74.73ZM74.73 83.87C73.63 83.87 72.74 82.98 72.74 81.88C72.74 80.78 73.63 79.89 74.73 79.89H107.36C108.46 79.89 109.35 80.78 109.35 81.88C109.35 82.98 108.46 83.87 107.36 83.87H74.73ZM35.8 83.87C34.7 83.87 33.82 82.98 33.82 81.89C33.82 80.79 34.71 79.91 35.8 79.91H66.06C67.16 79.91 68.04 80.8 68.04 81.89C68.04 82.99 67.15 83.87 66.06 83.87H35.8ZM36.76 72.36C35.66 72.36 34.78 71.47 34.78 70.38C34.78 69.28 35.67 68.4 36.76 68.4H67.02C68.12 68.4 69 69.29 69 70.38C69 71.48 68.11 72.36 67.02 72.36H36.76Z" fill="#303030"/>
<path d="M52.5744 21.2727V38H49.5197L42.2423 27.4719H42.1198V38H38.5832V21.2727H41.6869L48.9071 31.7926H49.0541V21.2727H52.5744ZM55.4963 38V21.2727H66.7676V24.1886H59.0329V28.1744H66.1877V31.0902H59.0329V35.0842H66.8003V38H55.4963ZM73.3446 38L68.5584 21.2727H72.4217L75.1905 32.8952H75.3293L78.384 21.2727H81.6919L84.7384 32.9197H84.8854L87.6543 21.2727H91.5175L86.7313 38H83.2846L80.0992 27.0636H79.9685L76.7913 38H73.3446ZM102.327 26.0835C102.262 25.4246 101.982 24.9128 101.486 24.5479C100.991 24.1831 100.318 24.0007 99.4687 24.0007C98.8915 24.0007 98.4042 24.0824 98.0067 24.2457C97.6092 24.4036 97.3043 24.6242 97.0919 24.9073C96.885 25.1905 96.7816 25.5117 96.7816 25.8711C96.7707 26.1706 96.8333 26.4319 96.9694 26.6552C97.111 26.8784 97.3043 27.0717 97.5493 27.2351C97.7943 27.393 98.0775 27.5318 98.3987 27.6516C98.72 27.766 99.063 27.864 99.4279 27.9457L100.931 28.305C101.66 28.4684 102.33 28.6862 102.94 28.9585C103.55 29.2307 104.078 29.5656 104.524 29.9631C104.971 30.3606 105.317 30.8288 105.562 31.3679C105.812 31.907 105.94 32.525 105.946 33.2219C105.94 34.2456 105.679 35.1332 105.162 35.8846C104.65 36.6306 103.909 37.2105 102.94 37.6243C101.976 38.0327 100.814 38.2369 99.4524 38.2369C98.102 38.2369 96.9259 38.0299 95.924 37.6161C94.9275 37.2023 94.1489 36.5897 93.588 35.7784C93.0326 34.9616 92.7413 33.9516 92.7141 32.7482H96.1363C96.1744 33.3091 96.3351 33.7773 96.6182 34.1531C96.9068 34.5233 97.2907 34.8037 97.7698 34.9943C98.2545 35.1795 98.8017 35.272 99.4115 35.272C100.01 35.272 100.53 35.1849 100.972 35.0107C101.418 34.8364 101.764 34.5941 102.009 34.2837C102.254 33.9734 102.376 33.6167 102.376 33.2138C102.376 32.8381 102.265 32.5223 102.042 32.2663C101.824 32.0104 101.502 31.7926 101.078 31.6129C100.658 31.4332 100.144 31.2699 99.534 31.1229L97.7127 30.6655C96.3024 30.3224 95.1889 29.7861 94.3721 29.0565C93.5554 28.3268 93.1497 27.344 93.1551 26.108C93.1497 25.0952 93.4192 24.2103 93.9637 23.4535C94.5137 22.6966 95.2678 22.1058 96.2262 21.6811C97.1845 21.2564 98.2735 21.044 99.4932 21.044C100.735 21.044 101.818 21.2564 102.744 21.6811C103.675 22.1058 104.399 22.6966 104.917 23.4535C105.434 24.2103 105.701 25.087 105.717 26.0835H102.327Z" fill="#303030"/>
</svg>
