<svg xmlns="http://www.w3.org/2000/svg" width="246" height="249" fill="none" viewBox="0 0 246 249">
  <path fill="red" d="M59.5 2C51-.5 41 1 24 2c-.22.013-3.5 0-5.5 2s1 11.5 2 15 2 26 2.5 30.5c.4 3.6-.166 19.5-.5 27l71-1 121.5-2v-18c-2-5.5-1-9.5-2-16s.5-18 3-27.5-3-10.5-3.5-11.5c-.4-.8-22.5-.333-33.5 0C156.334.167 108.4 0 98 2 85 4.5 68 4.5 59.5 2Z"/>
  <path stroke="#FFC900" stroke-width="2" d="M36.764 42.232c-1.248 1.248-6.864 1.872-7.488 1.248-.301-.3-.315-2.586-.232-4.992m0 0c.054-1.58.15-3.213.232-4.368 2.08-.416 6.614-1.123 8.112-.624m-8.344 4.992c2.573.208 7.845.5 8.344 0M41.756 31c-.624 4.576-1.498 13.728 0 13.728s3.536-1.664 4.368-2.496m8.736-6.24v4.68m0 4.68v-4.68m0 0c1.873-1.768 5.617-4.68 6.24-4.68m8.113 6.864c1.248-1.248 0-5.616-3.744-6.24-1.872-1.248-2.496 5.616-1.872 7.488.624 1.872 4.368 0 5.616-1.248Zm9.36-6.864c-1.872 0-4.992.624-4.992 1.872 0 1.248 4.368 2.496 4.992 3.12.624.624 1.248 3.744-.624 3.744-1.498 0-4.368-.416-5.616-.624m11.232-11.232c0 3.12.125 9.485.624 9.984.624.624 1.872 1.248 3.12 1.248m-5.616-6.864 6.864-.624m3.12 0v3.12m0 5.616v-5.616m0 0c1.664-1.248 4.368-3.12 5.617-3.12m3.12 3.744c0-1.497 2.08-3.12 3.12-3.744 1.248-.624 2.496 1.872 3.12 3.744.624 1.872-1.872 3.744-4.368 4.368-2.496.624-1.872-2.496-1.872-4.368ZM124.126 31c-.832 3.536-.873 12.23.624 13.728m-3.744-9.36c-4.368 1.248-4.992 3.744-4.992 4.368 0 .624-.624 5.616.624 4.992 1.248-.624 4.368-4.992 4.992-4.992.624 0 0-4.563-.624-4.368Zm8.112 3.744c1.456-.208 4.993-.749 4.993-1.248 0-.624.624-2.496-1.249-2.496-1.872 0-4.368 3.12-4.368 3.744 0 .624-.624 6.24.624 6.24s4.369-.624 4.993-1.872m3.744-11.856c-.208 4.16-.5 12.48 0 12.48.499 0 2.704-1.248 3.744-1.872m7.488 2.496a227.628 227.628 0 0 1 4.048-5.429m10.304 6.053c-1.664-3.536-5.117-10.733-5.616-11.232-.302-.302-2.443 2.27-4.688 5.179m0 0 10.928.437m3.744-3.744v8.736c1.456-2.912 4.493-8.611 4.992-8.112.624.624 1.248 6.864 1.872 6.864.625 0 4.993-6.864 4.993-6.24 0 .624.624 6.864 1.872 6.864.998 0 2.08-.832 2.496-1.248m3.12-1.872c0-.499 2.08-3.12 3.12-4.368 1.872-.624 3.744 3.744 3.12 4.992-.624 1.248-3.12 3.12-4.368 3.12-1.248 0-1.872-3.12-1.872-3.744Zm10.608-5.616v3.12m0 6.24v-6.24m0 0c1.872-.624 5.741-1.872 6.24-1.872"/>
  <path fill="#FFC900" d="M139.5 67c-5.2 2.8-13.5 18.833-17 26.5-2.166-4.5-7-14.2-9-17C111 73 98 67 92 63.5 88.627 61.532 67 57 58.5 57s-35.5 6.633-44 14C7 77.5 4 90.5 1 100.5c-2.39 7.971 1 30 3 36.5.441 1.434 8.5 18 12.5 23.5C18.797 163.658 29 173 30 174s17.5 20 17.5 20.5 13.481 12.068 20 17.5c3 2.5 4.3 2.9 7.5 4.5s34 22.333 49 32.5c11.5-8 35.1-24.5 37.5-26.5 3-2.5 59.5-55 68-66s14-34.5 15.5-44-5.872-28.744-7.5-32c-2-4-10.874-14.092-12-15.5-2-2.5-3.216-3.645-7.5-6.5-6-4-11-4.5-26-5.5-14.774-.985-46 10.5-52.5 14Z"/>
  <path stroke="red" stroke-width="1.5" d="M24 133.828c.684.08 1.515.206 2.414.378m-1.81 8.07c4.022 0 11.827-.724 10.861-3.621-.772-2.317-5.457-3.759-9.051-4.449m0 0v9.88m18.706-9.052c-2.614-.402-7.482.483-6.034 7.242.853 3.98 4.627-2.012 6.035-7.242Zm0 0 .604 8.449m9.656-7.845c-.805-.402-2.777-.845-4.225.603-1.81 1.811.604 3.621 1.81 3.621 1.207 0 4.828 1.207 3.018 2.414-1.81 1.207-6.035 1.207-6.638 0m28.362-8.448c-3.42.804-9.655 3.017-10.862 4.224-1.35 1.349-1.81 7.241 4.827 4.827 5.31-1.931 6.638-3.218 6.638-3.62v7.241m3.621-7.845c1.207 0 6.035-.483 6.035-2.414 0-2.413-7.242-3.017-6.035 2.414Zm0 0c-.805 1.408-.845 4.466.603 5.431 1.449.966 4.225-1.207 5.431-2.414m7.845-6.638c-1.609 0-4.827.363-4.827 1.811 0 1.81 3.62 2.414 4.827 3.621 1.207 1.206-.603 3.62-6.034 2.413m11.465-7.845c-.603 2.213-1.448 6.759 0 7.242 1.449.483 3.018-.604 3.621-1.207M102.448 129l-1.81 2.414m12.069 5.431c-1.408-.805-4.345-1.69-4.828 1.207-.603 3.62 1.811 6.034 3.018 5.431.965-.483 2.816-2.615 3.62-3.621m3.017-7.845c-.201 3.822-.482 11.466 0 11.466.604 0 4.828-9.655 6.035-7.845 1.207 1.81 1.207 7.241 1.207 7.845M129 132.621c0 3.218.241 9.776 1.207 10.258 1.207.604 2.414 0 3.017-.603m-5.431-6.035h6.638m15.69-6.034-.604 13.879m-.603-8.448c-1.609-.805-5.069-1.931-6.035 0-1.207 2.414-.603 9.052.604 8.448 1.207-.603 5.431-6.034 5.431-8.448Zm6.192 2.438c-.201 1.207-.641 4.441-.158 5.407.483.965 3.42-.403 4.828-1.207m-4.828-4.224c1.207.201 3.742.241 4.224-1.207.604-1.811.604-3.017-.603-2.414-1.207.603-4.224 1.81-3.621 3.621Zm7.845-3.018.259 3.621m.345 4.828-.345-4.828m0 0c1.724-.804 5.293-2.414 5.776-2.414m9.655-3.62c-.604 3.218-1.328 9.776.603 10.258 1.931.483 6.035-.201 7.845-.603m4.828-7.242c-.403 2.615-.845 7.845.603 7.845s2.213-1.207 2.414-1.81m-1.811-11.466-1.81 1.811m6.638 6.638c-1.207-1.207 3.017-3.018 3.621-3.621.603-.603 2.414.603 1.81 1.81-.483.966-2.615 2.012-3.621 2.414-.201.201-.844.362-1.81-.603Zm0 0c0 2.011.121 6.034.604 6.034.603 0 4.224-.603 4.827-1.81m3.621-12.069.241 4.827m0 0 .362 7.242c1.006.603 3.38 1.569 4.828.603 1.81-1.207 1.81-7.845-.604-8.448-1.931-.483-3.862.201-4.586.603Zm10.621 3.018c1.207.603 3.621-1.207 4.224-1.811.603-.603 0-2.413-1.207-1.81-1.207.603-4.224 1.207-3.017 3.621Zm0 0c-.402 1.81-.845 5.551.603 6.034 1.811.604 4.224-1.207 4.224-1.81"/>
</svg>
